<svg xmlns="http://www.w3.org/2000/svg" xmlns:xlink="http://www.w3.org/1999/xlink" width="203" height="370" viewBox="0 0 203 370">
  <defs>
    <clipPath id="clip-path">
      <rect id="Rectangle_27593" data-name="Rectangle 27593" width="203" height="370" transform="translate(0 909)" fill="#fff" stroke="#707070" stroke-width="1"/>
    </clipPath>
  </defs>
  <g id="Mask_Group_2254" data-name="Mask Group 2254" transform="translate(0 -909)" clip-path="url(#clip-path)">
    <g id="Group_174846" data-name="Group 174846" transform="translate(240.714 968.043) rotate(106)" opacity="0.1">
      <path id="Path_59423" data-name="Path 59423" d="M826.187,376.815h0l-.1-.1-.513-.553-.244-.225-.451-.369-.266-.184-.532-.327-.225-.123a7.911,7.911,0,0,0-1.678-.675h0l-.839-.164h-.962a8.031,8.031,0,0,0-2.046.225h0a7.977,7.977,0,0,0-2.048.8h0a7.972,7.972,0,0,0-1.145.8,7.829,7.829,0,0,0-1.229,1.289h0a7.549,7.549,0,0,0-.45.655v.164l-.286.553-.1.245-.2.491-.1.307-.123.45v1.966a8.61,8.61,0,0,0,0,1.186v.2h0a1.1,1.1,0,0,0,.143.655v.184a2.342,2.342,0,0,0,.184.573v.245c0,.184.165.348.245.533l.1.225a8.113,8.113,0,0,0,.45.736h0c.143.2.285.389.429.573h0a76.834,76.834,0,0,1-5.424,103.012l-88.581,88.582a77.079,77.079,0,0,1-109.008,0l-76.3-76.3h0l-.287-.492-.164-.246-.45-.573-.2-.245h0l-.1-.1h0a2.5,2.5,0,0,0-.45-.43l-.164-.163c-1.576-1.289-3.151-2.742-4.687-4.257l-6.14-6.14-.389-.389c-.286-.327-.613-.676-.962-1.023s-.9-.941-1.309-1.433l-.164-.164-1.433-1.678c-.41-.471-.778-.941-1.146-1.412h0l-.143-.164-.1-.143v-.246h0a7.93,7.93,0,0,1-.594-.778l-.122-.164c-.328-.43-.635-.819-.922-1.248v-.123L514,479.479l-.594-.86h0l-.593-.9h0c-.245-.367-.47-.757-.716-1.125s-.451-.716-.676-1.105v-.143l-.655-1.126-.307-.553v-.143a7.163,7.163,0,0,1-.389-.7l-.2-.368c-.123-.205-.225-.409-.328-.614l-.328-.676-.163-.286c-.307-.614-.614-1.228-.921-1.9h0c-.328-.7-.655-1.391-.942-2.046v-.307c-.163-.368-.327-.737-.47-1.1V465.3c-.163-.409-.348-.819-.512-1.248V463.8c-.142-.369-.287-.757-.43-1.146v-.205c-.2-.532-.368-1.044-.552-1.637s-.368-1.023-.512-1.576v-.205q-.214-.614-.368-1.228l-1.7-.922a2.839,2.839,0,0,0-.163-.594V455.9a2.476,2.476,0,0,1,0-.307,4.325,4.325,0,0,0-.266-1c-.1-.368-.328-1.249-.492-2.047s-.225-1-.328-1.555-.2-.983-.286-1.515c-.2-1.023-.368-2.046-.512-3.049v-1.6l-.184-1.576c0-.573-.1-1.146-.143-1.7v-9.864a1.05,1.05,0,0,1,0-.205v-1.822a7.7,7.7,0,0,1,.164-1.9c.1-1.044.246-2.17.43-3.5l.287-1.822a6.248,6.248,0,0,1,.286-1.494v-.45a3.047,3.047,0,0,0,0-.45.667.667,0,0,0,0-.143h0l.1-.409v-.184a7.634,7.634,0,0,1,.225-.982,5.227,5.227,0,0,1,.225-.982c.143-.634.328-1.29.491-2.047s.246-.9.368-1.371.307-1.044.491-1.576.144-.492.225-.717,0-.307.143-.471a9.734,9.734,0,0,0,.45-1.371c.43-1.248.86-2.374,1.351-3.561.185-.45.369-.88.553-1.31l.144-.327.8-1.76.164-.328c.389-.86.819-1.72,1.269-2.6l.286-.553.471-.86.2-.368c.758-1.351,1.454-2.518,2.046-3.561l.757-1.147c.225-.369.471-.716.716-1.065l.7-1.023h0c.655-.941,1.331-1.842,2.046-2.722l.206-.246,1.351-1.678a2.986,2.986,0,0,1,.2-.266l.675-.819.676-.758.47-.552.656-.716.348-.389h0l.307-.327.388-.41.143-.164,1.249-1.289,88.582-88.582a77.06,77.06,0,0,1,109.008,0l5.506,5.506a77,77,0,0,1,0,109.008L636.846,495.5a8.023,8.023,0,1,0,11.114,11.318l88.581-88.582a93.044,93.044,0,0,0,0-131.686l-5.5-5.506a93.064,93.064,0,0,0-131.686,0l-88.52,88.562h0l-.491.512-1,1.023-.635.676-.328.327c-1.33,1.433-2.476,2.763-3.581,4.093-.594.717-1.187,1.453-1.8,2.252h0c-.471.594-.921,1.228-1.371,1.842l-1.331,1.862c-.859,1.228-1.7,2.5-2.559,3.889-.512.8-1.024,1.658-1.555,2.6l-.328.573-.327.594-.163.287v.163l-.225.43v.143l-.594,1.105-.941,1.842-.123.246-.225.43-.778,1.658c-.328.675-.634,1.372-.982,2.149l-.163.368c-.246.573-.492,1.146-.7,1.658-.553,1.35-1.064,2.742-1.6,4.257l-.717,1.126-.41,1.228-.675,2.21c-.226.778-.45,1.555-.634,2.252s-.389,1.514-.573,2.251h0c-.184.8-.368,1.576-.531,2.374a1.892,1.892,0,0,0,0,.307,1.02,1.02,0,0,1-.1.532c-.1.184,0,.205,0,.328v.45a8.5,8.5,0,0,1-.184.941c-.041.328-.143.84-.225,1.29s-.246,1.453-.328,2.047c-.225,1.535-.389,2.927-.511,4.216,0,.716-.144,1.433-.2,2.231v.531a10.7,10.7,0,0,1-.1,1.822,15.592,15.592,0,0,0,0,2.19v8.043a8.485,8.485,0,0,0,.123,1.74v.184c0,.757.143,1.535.2,2.313v.164l.143,1.187a2.827,2.827,0,0,0,.144,1.085c.143.368,0,.737.143,1.085q.265,1.842.594,3.684c.122.634.245,1.289.368,1.862l.2.941a5.818,5.818,0,0,0,.184.859c.041.266.185.819.287,1.229l.266,1.085h0c.143.594.307,1.187.492,1.8s.245.88.368,1.289.327,1.105.511,1.679.451,1.412.675,2.047.471,1.412.758,2.046.389,1.064.594,1.6.245.635.368.941.2.553.328.839c.266.635.532,1.289.818,1.945l.205.45.368.8.553,1.227,1.1,2.252.164.328c.246.471.471.941.737,1.392l.225.43.205.368c.184.369.389.7.573,1.023h0l.287.533.819,1.392c.553.941,1.146,1.883,1.678,2.722s1.023,1.576,1.494,2.251.757,1.105,1.167,1.678l1.064,1.453v.1l.123.164c.287.368.553.737.839,1.105v.123a29.278,29.278,0,0,0,4.093,5.1l11.564,11.544h0L599.1,589.429a93.1,93.1,0,0,0,131.685,0L819.678,501.3a92.819,92.819,0,0,0,6.508-124.482" transform="translate(-483.788 -253.754)" fill="#bed644"/>
      <path id="Path_59424" data-name="Path 59424" d="M731.294,387.034a29.964,29.964,0,0,1,0,42.367l-75.318,75.32a30.006,30.006,0,0,1-42.367,0l-75.32-75.32a29.964,29.964,0,0,1,0-42.367l75.32-75.319,10.7-10.7a14.571,14.571,0,0,1,20.569,0l7.779,7.8.286.246.184.184,3.3,3.336a14.532,14.532,0,0,1,0,20.468L593.817,395.67h0L564,425.573a8.023,8.023,0,1,0,11.339,11.339l29.78-29.78h0L667.744,344.5a30.578,30.578,0,0,0,0-43.268l-3.725-3.766-.143-.122-.143-.143-7.532-7.552a30.7,30.7,0,0,0-43.267,0l-10.7,10.7-75.339,75.34a45.99,45.99,0,0,0,0,65.045l75.32,75.319a45.988,45.988,0,0,0,65.044,0l75.319-75.319a45.99,45.99,0,0,0,0-65.045,8.023,8.023,0,0,0-11.338,11.339" transform="translate(-452.773 -225.515)" fill="#bed644"/>
    </g>
  </g>
</svg>
