<svg id="Group_173887" data-name="Group 173887" xmlns="http://www.w3.org/2000/svg" width="30.08" height="32.82" viewBox="0 0 30.08 32.82">
  <g id="artist" transform="translate(0 0)">
    <circle id="Ellipse_7699" data-name="Ellipse 7699" cx="8.206" cy="8.206" r="8.206" transform="translate(10.646 0.582)" fill="#ea8803" opacity="0.16"/>
    <path id="Path_59572" data-name="Path 59572" d="M22,29.52V24.735L26.1,22v7.52" transform="translate(-19.949 -12.424)" fill="#ea8803" opacity="0.28"/>
    <g id="Group_173886" data-name="Group 173886" transform="translate(0 0)">
      <path id="Path_59573" data-name="Path 59573" d="M52.074,16.885a.684.684,0,0,0-.684-.684h-1.4a8.878,8.878,0,0,0-17.706,0h-1.4a.684.684,0,0,0-.684.684,10.943,10.943,0,0,0,10.255,10.9V36.71H34.983a2.051,2.051,0,1,0,0,4.1H47.289a2.051,2.051,0,0,0,0-4.1H41.82V27.788a10.943,10.943,0,0,0,10.255-10.9Zm-4.1,21.876a.684.684,0,0,1-.684.684H34.983a.684.684,0,1,1,0-1.367H47.289A.684.684,0,0,1,47.972,38.761Zm-6.836-29.4a7.52,7.52,0,1,1-7.52,7.52A7.52,7.52,0,0,1,41.136,9.365Zm-9.547,8.2h.695a8.878,8.878,0,0,0,17.706,0h.695a9.571,9.571,0,0,1-19.094,0Zm-3.119-.6a.684.684,0,0,0-.7.034l-4.1,2.735a.684.684,0,0,0-.3.569v4.1a.684.684,0,0,0-.684.684v4.1a.684.684,0,0,0-.684.684V40.129a.684.684,0,0,0,.684.684h6.836a.684.684,0,0,0,.684-.684V29.874a.684.684,0,0,0-.684-.684v-4.1a.684.684,0,0,0-.684-.684V17.569A.684.684,0,0,0,28.469,16.966Zm.361,13.592v1.695l-5.469,3.828V30.558Zm-5.469,8.887V37.75l5.469-3.828v5.523Zm.684-10.255V25.772h4.1V29.19Zm.684-4.785V20.669l2.735-1.823v5.559Z" transform="translate(-21.994 -7.993)" fill="#ea8803"/>
      <path id="Path_59574" data-name="Path 59574" d="M41.971,22.448,48.122,16.3l.967.966-6.151,6.151Zm-.684-3.418,2.735-2.735.966.967L42.253,20Zm4.785,3.418,2.735-2.735.966.967-2.735,2.735Z" transform="translate(-26.051 -10.619)" fill="#ea8803"/>
    </g>
  </g>
  <path id="Path_59575" data-name="Path 59575" d="M1775.639-5515.547v-9.559l.373-.813s-.136-.508,0-.644a11.289,11.289,0,0,0,.2-2.2v-1.118h0l.3-.441h4.813l.339.441s.034.881,0,1.118,0,2.847,0,2.847l1.017.509v9.253l-.407.61h-6.643Z" transform="translate(-1774.95 5547.587)" fill="#ea8803"/>
</svg>
