<svg id="vuesax_bulk_tick-square" data-name="vuesax/bulk/tick-square" xmlns="http://www.w3.org/2000/svg" width="82" height="82" viewBox="0 0 82 82">
  <g id="tick-square">
    <path id="Vector" d="M48.483,0H19.851C7.414,0,0,7.414,0,19.851v28.6C0,60.919,7.414,68.333,19.851,68.333h28.6c12.437,0,19.851-7.414,19.851-19.851V19.851C68.333,7.414,60.919,0,48.483,0Z" transform="translate(6.833 6.833)" fill="#0e9096" opacity="0.4"/>
    <path id="Vector-2" data-name="Vector" d="M12.223,24.489a2.56,2.56,0,0,1-1.811-.752L.743,14.068a2.561,2.561,0,0,1,3.622-3.622L12.223,18.3,29.785.743a2.561,2.561,0,1,1,3.622,3.622L14.034,23.737A2.56,2.56,0,0,1,12.223,24.489Z" transform="translate(23.925 28.743)" fill="#0e9096"/>
    <path id="Vector-3" data-name="Vector" d="M0,0H82V82H0Z" fill="none" opacity="0"/>
  </g>
</svg>
