<svg id="call-calling_bold" data-name="call-calling/bold" xmlns="http://www.w3.org/2000/svg" width="24" height="24" viewBox="0 0 24 24">
  <g id="vuesax_bold_call-calling" data-name="vuesax/bold/call-calling">
    <g id="call-calling">
      <path id="Vector" d="M.78,5.15a.77.77,0,0,0,.77-.77,3.481,3.481,0,0,1,.99-1.81A2.791,2.791,0,0,1,4.38,1.54.77.77,0,1,0,4.38,0,4.25,4.25,0,0,0,1.41,1.51,4.719,4.719,0,0,0,0,4.37.781.781,0,0,0,.78,5.15Z" transform="translate(5.6 5.6)" fill="#bed644"/>
      <path id="Vector-2" data-name="Vector" d="M.77,8.75a.77.77,0,0,0,.77-.77A6.438,6.438,0,0,1,7.97,1.55.775.775,0,0,0,7.98,0,7.989,7.989,0,0,0,0,7.98.777.777,0,0,0,.77,8.75Z" transform="translate(2 2)" fill="#bed644"/>
      <path id="Vector-3" data-name="Vector" d="M.3,12.95l1.85,1.85a1,1,0,0,0,1.41.01c.11-.11.22-.21.33-.32a28.414,28.414,0,0,0,2.79-3.27,17.828,17.828,0,0,0,1.96-3.41,8.586,8.586,0,0,0,.71-3.27,5.173,5.173,0,0,0-.36-1.93A4.6,4.6,0,0,0,7.835.94,2.93,2.93,0,0,0,5.755,0a1.879,1.879,0,0,0-.81.18,1.63,1.63,0,0,0-.67.56L1.955,4.01a3.422,3.422,0,0,0-.4.7,1.581,1.581,0,0,0-.14.61,1.357,1.357,0,0,0,.21.71,3.4,3.4,0,0,0,.56.71l.76.79a.535.535,0,0,1,.16.4.908.908,0,0,1-.03.23c-.03.08-.06.14-.08.2a8.3,8.3,0,0,1-.93,1.28c-.45.52-.93,1.05-1.45,1.58-.1.1-.21.2-.31.3A1,1,0,0,0,.3,12.95Z" transform="translate(12.655 2)" fill="#bed644"/>
      <path id="Vector-4" data-name="Vector" d="M0,4.29a2.54,2.54,0,0,0,.15.85,2.442,2.442,0,0,0,.1.24A4.126,4.126,0,0,0,.93,6.4,4.508,4.508,0,0,0,2.57,7.58c.01,0,.02.01.03.01a5.052,5.052,0,0,0,1.92.37,8.334,8.334,0,0,0,3.26-.73,17.564,17.564,0,0,0,3.44-1.98c.39-.29.78-.58,1.15-.89L9.1,1.09a5.618,5.618,0,0,1-.74.48c-.05.02-.11.05-.18.08a.69.69,0,0,1-.25.04.55.55,0,0,1-.41-.17L6.76.77A3.068,3.068,0,0,0,6.04.21,1.332,1.332,0,0,0,5.33,0a1.6,1.6,0,0,0-.61.13,3.868,3.868,0,0,0-.7.39L.71,2.87a1.517,1.517,0,0,0-.55.64A2.052,2.052,0,0,0,0,4.29Z" transform="translate(2.03 14.04)" fill="#bed644"/>
      <path id="Vector-5" data-name="Vector" d="M0,24H24V0H0Z" transform="translate(0 0)" fill="none" opacity="0"/>
    </g>
  </g>
</svg>
