<svg id="call-calling_linear" data-name="call-calling/linear" xmlns="http://www.w3.org/2000/svg" width="27.865" height="27.865" viewBox="0 0 27.865 27.865">
  <g id="vuesax_linear_call-calling" data-name="vuesax/linear/call-calling">
    <g id="call-calling">
      <g id="call-calling-2" data-name="call-calling" transform="translate(2.322 2.322)">
        <path id="Vector" d="M23.186,18.96a2.955,2.955,0,0,1-.29,1.266,4.791,4.791,0,0,1-.79,1.184,5.234,5.234,0,0,1-1.9,1.37,5.83,5.83,0,0,1-2.264.441,9.676,9.676,0,0,1-3.785-.848,20.393,20.393,0,0,1-3.994-2.3,33.38,33.38,0,0,1-3.808-3.251,32.99,32.99,0,0,1-3.239-3.8A20.7,20.7,0,0,1,.836,9.068,9.779,9.779,0,0,1,0,5.271,6.006,6.006,0,0,1,.418,3.03,5.344,5.344,0,0,1,1.753,1.091,3.4,3.4,0,0,1,4.168,0a2.182,2.182,0,0,1,.94.209,1.893,1.893,0,0,1,.778.65l2.694,3.8a3.973,3.973,0,0,1,.464.813,1.835,1.835,0,0,1,.163.708A1.576,1.576,0,0,1,8.963,7a3.949,3.949,0,0,1-.65.824l-.882.917a.621.621,0,0,0-.186.464,1.054,1.054,0,0,0,.035.267c.035.093.07.163.093.232a9.635,9.635,0,0,0,1.08,1.486c.522.6,1.08,1.219,1.684,1.834.627.615,1.231,1.184,1.846,1.707a8.911,8.911,0,0,0,1.5,1.068c.058.023.128.058.209.093a.8.8,0,0,0,.29.046.639.639,0,0,0,.476-.2l.882-.871a3.562,3.562,0,0,1,.836-.65A1.546,1.546,0,0,1,17,13.979a1.853,1.853,0,0,1,.708.151,4.49,4.49,0,0,1,.813.453l3.843,2.728a1.761,1.761,0,0,1,.639.743A2.382,2.382,0,0,1,23.186,18.96Z" fill="none" stroke="#fff" stroke-width="2.5"/>
        <path id="Vector-2" data-name="Vector" d="M4.064,4.064A4.6,4.6,0,0,0,2.705,1.428,3.966,3.966,0,0,0,0,0" transform="translate(15.094 4.064)" fill="none" stroke="#fff" stroke-linecap="round" stroke-linejoin="round" stroke-width="2.5"/>
      </g>
      <path id="Vector-3" data-name="Vector" d="M0,0H27.865V27.865H0Z" fill="none" opacity="0"/>
    </g>
  </g>
</svg>
