<svg id="camera_linear" data-name="camera/linear" xmlns="http://www.w3.org/2000/svg" width="26.33" height="26.33" viewBox="0 0 26.33 26.33">
  <g id="vuesax_linear_camera" data-name="vuesax/linear/camera">
    <g id="camera">
      <path id="Vector" d="M4.957,21.942h11.5a3.989,3.989,0,0,0,4.377-4.114l.57-9.062a4.118,4.118,0,0,0-4.114-4.377A1.8,1.8,0,0,1,15.7,3.412l-.79-1.591A3.621,3.621,0,0,0,11.967,0H9.455A3.624,3.624,0,0,0,6.5,1.821l-.79,1.591a1.8,1.8,0,0,1-1.591.976A4.118,4.118,0,0,0,.009,8.766l.57,9.062A3.983,3.983,0,0,0,4.957,21.942Z" transform="translate(2.46 2.194)" fill="none" stroke="#ea8803" stroke-linecap="round" stroke-linejoin="round" stroke-width="1"/>
      <path id="Vector-2" data-name="Vector" d="M0,0H3.291" transform="translate(11.52 8.777)" fill="none" stroke="#ea8803" stroke-linecap="round" stroke-linejoin="round" stroke-width="1"/>
      <path id="Vector-3" data-name="Vector" d="M3.566,7.131A3.566,3.566,0,1,0,0,3.566,3.573,3.573,0,0,0,3.566,7.131Z" transform="translate(9.6 12.617)" fill="none" stroke="#ea8803" stroke-linecap="round" stroke-linejoin="round" stroke-width="1"/>
      <path id="Vector-4" data-name="Vector" d="M0,0H26.33V26.33H0Z" fill="none" opacity="0"/>
    </g>
  </g>
</svg>
