<svg xmlns="http://www.w3.org/2000/svg" width="63.829" height="63.831" viewBox="0 0 63.829 63.831">
  <g id="noun-car-steering-wheel-5417950" transform="translate(0)">
    <path id="Path_59548" data-name="Path 59548" d="M203.49,101.57A31.916,31.916,0,1,0,235.4,133.481,31.937,31.937,0,0,0,203.49,101.57Zm0,3.119a28.79,28.79,0,1,1-28.79,28.79A28.77,28.77,0,0,1,203.49,104.689Z" transform="translate(-171.57 -101.57)" fill="#bed644"/>
    <path id="Path_59549" data-name="Path 59549" d="M230.119,133.92a26.121,26.121,0,1,0,26.123,26.123,26.144,26.144,0,0,0-26.123-26.123Zm0,3.134a22.962,22.962,0,0,1,21.2,14.083H208.915a22.962,22.962,0,0,1,21.2-14.082Zm-22.231,17.212H219.55v9.393H207.443a21.906,21.906,0,0,1,.446-9.393Zm14.791,0h15.066V169.84a64.082,64.082,0,0,1-7.614.669,60.748,60.748,0,0,1-7.452-.682Zm18.2,0h11.478a21.9,21.9,0,0,1,.447,9.394H240.877ZM208.138,166.79h11.411v4.448a1.563,1.563,0,0,0,1.156,1.5,16.279,16.279,0,0,0,1.594.33v8.6a23,23,0,0,1-14.161-14.879Zm32.739,0H252.1a23,23,0,0,1-14.139,14.869V173.1a16.919,16.919,0,0,0,1.743-.349,1.565,1.565,0,0,0,1.167-1.513Zm-15.447,6.641c1.694.137,3.347.2,4.484.206.131,0,.26,0,.385,0,1.134-.007,2.811-.061,4.535-.193v8.965a23.3,23.3,0,0,1-4.6.623c-.074,0-.148,0-.22,0a23.223,23.223,0,0,1-4.588-.634Z" transform="translate(-198.2 -128.134)" fill="#bed644"/>
    <path id="Path_59550" data-name="Path 59550" d="M325.484,260.14a2.612,2.612,0,0,0-2.576,2.576v6.631a2.6,2.6,0,0,0,2.576,2.565h4.737a2.6,2.6,0,0,0,2.576-2.565v-6.63a2.612,2.612,0,0,0-2.576-2.576Zm.554,3.131h3.628v5.511h-3.628Z" transform="translate(-295.839 -231.778)" fill="#bed644"/>
  </g>
</svg>
