<svg xmlns="http://www.w3.org/2000/svg" width="13.32" height="23.013" viewBox="0 0 13.32 23.013">
  <g id="noun-user-4676579" transform="translate(-205.778 -30.633)">
    <path id="Path_59425" data-name="Path 59425" d="M217.4,244.891a6.671,6.671,0,0,0-4.879-2.22c-.027,0-.057,0-.089,0s-.072,0-.1,0a6.659,6.659,0,0,0-6.509,7.415l.725,5.09a.833.833,0,0,0,.825.716H217.5a.833.833,0,0,0,.825-.715l.733-5.123,0-.028h0a6.627,6.627,0,0,0-1.664-5.134Z" transform="translate(0 -202.245)" fill="#3f4653"/>
    <path id="Path_59426" data-name="Path 59426" d="M259.21,39.426h.132a4.4,4.4,0,1,0-.132,0Z" transform="translate(-46.833)" fill="#3f4653"/>
  </g>
</svg>
