<svg xmlns="http://www.w3.org/2000/svg" width="32.428" height="39.714" viewBox="0 0 32.428 39.714">
  <g id="Group_174924" data-name="Group 174924" transform="translate(-301.786 -164.786)">
    <g id="profile_bulk" data-name="profile/bulk" transform="translate(301.786 164.786)">
      <g id="vuesax_bulk_profile" data-name="vuesax/bulk/profile">
        <g id="profile">
          <path id="Vector" d="M6.418,0a6.412,6.412,0,0,0-.162,12.822,1.09,1.09,0,0,1,.3,0h.095A6.413,6.413,0,0,0,6.418,0Z" transform="translate(9.796 2.702)" fill="#094271" opacity="0.4"/>
          <path id="Vector-2" data-name="Vector" d="M16.376,1.885a13.415,13.415,0,0,0-13.714,0A5.333,5.333,0,0,0,0,6.249a5.288,5.288,0,0,0,2.648,4.337,12.484,12.484,0,0,0,6.864,1.905,12.484,12.484,0,0,0,6.864-1.905,5.331,5.331,0,0,0,2.648-4.364A5.32,5.32,0,0,0,16.376,1.885Z" transform="translate(6.702 17.234)" fill="#094271"/>
          <path id="Vector-3" data-name="Vector" d="M0,0H32.428V32.428H0Z" fill="none" opacity="0"/>
        </g>
      </g>
    </g>
    <line id="Line_449" data-name="Line 449" x1="14" transform="translate(311.5 203.5)" fill="none" stroke="#094271" stroke-linecap="round" stroke-width="2" opacity="0.44"/>
  </g>
</svg>
