<svg xmlns="http://www.w3.org/2000/svg" width="13.277" height="13.277" viewBox="0 0 13.277 13.277">
  <g id="noun-clock-1570075" transform="translate(-73.323 -50.402)">
    <path id="Path_59563" data-name="Path 59563" d="M127.039,50.4a6.639,6.639,0,1,0,6.639,6.639A6.646,6.646,0,0,0,127.039,50.4Zm0,.972a5.667,5.667,0,1,1-5.667,5.667A5.66,5.66,0,0,1,127.039,51.374Zm0,.81a.486.486,0,0,0-.486.486v4.372a.485.485,0,0,0,.243.42l3.506,2.024a.485.485,0,0,0,.486-.84l-3.264-1.882V52.669a.486.486,0,0,0-.486-.486Z" transform="translate(-47.077)" fill="#727272"/>
  </g>
</svg>
