<svg xmlns="http://www.w3.org/2000/svg" width="141.641" height="85.446" viewBox="0 0 141.641 85.446">
  <g id="Group_175010" data-name="Group 175010" transform="translate(-611.568 -183.054)">
    <g id="Group_175009" data-name="Group 175009" transform="translate(496 -290.5)">
      <g id="tick-square_bulk" data-name="tick-square/bulk" transform="translate(147 477)">
        <g id="vuesax_bulk_tick-square" data-name="vuesax/bulk/tick-square">
          <g id="tick-square">
            <path id="Vector" d="M48.483,0H19.851C7.414,0,0,7.414,0,19.851v28.6C0,60.919,7.414,68.333,19.851,68.333h28.6c12.437,0,19.851-7.414,19.851-19.851V19.851C68.333,7.414,60.919,0,48.483,0Z" transform="translate(6.833 6.833)" fill="#0e9096" opacity="0.4"/>
            <path id="Vector-2" data-name="Vector" d="M12.223,24.489a2.56,2.56,0,0,1-1.811-.752L.743,14.068a2.561,2.561,0,0,1,3.622-3.622L12.223,18.3,29.785.743a2.561,2.561,0,1,1,3.622,3.622L14.034,23.737A2.56,2.56,0,0,1,12.223,24.489Z" transform="translate(23.925 28.743)" fill="#0e9096"/>
            <path id="Vector-3" data-name="Vector" d="M0,0H82V82H0Z" fill="none" opacity="0"/>
          </g>
        </g>
      </g>
      <g id="Ellipse_7686" data-name="Ellipse 7686" transform="translate(241 477)" fill="#fff" stroke="#0e9096" stroke-width="1" opacity="0.41">
        <circle cx="7" cy="7" r="7" stroke="none"/>
        <circle cx="7" cy="7" r="6.5" fill="none"/>
      </g>
      <g id="Ellipse_7687" data-name="Ellipse 7687" transform="translate(120 541)" fill="#fff" stroke="#bed644" stroke-width="1" opacity="0.41">
        <circle cx="6" cy="6" r="6" stroke="none"/>
        <circle cx="6" cy="6" r="5.5" fill="none"/>
      </g>
      <path id="Path_59560" data-name="Path 59560" d="M15,8S9.055,9,5.3,7,0,0,0,0" transform="translate(117 474)" fill="none" stroke="#0e9096" stroke-width="3" opacity="0.3"/>
      <path id="Path_59561" data-name="Path 59561" d="M10.865.18S6.559-.542,3.842.907,0,5.975,0,5.975" transform="translate(245.967 538.203) rotate(-2)" fill="none" stroke="#bed644" stroke-width="2" opacity="0.3"/>
    </g>
  </g>
</svg>
