<svg id="Group_173885" data-name="Group 173885" xmlns="http://www.w3.org/2000/svg" width="19.905" height="35.369" viewBox="0 0 19.905 35.369">
  <path id="Path_59568" data-name="Path 59568" d="M1728.277-5490.614s-.4-7.79-.4-8.02.4-4.068.4-4.068l.287-3.493.573-1.948.458-.859.4-.572,1.146-.344h8.65l3.494.344s1.088.63,1.146,1.088.057,4.125,0,4.813,1.26,4.01,1.2,4.41.344,2.292,0,2.808a21.948,21.948,0,0,0-.687,4.353v2.234l-1.661.63h-5.27l-8.421-1.031Z" transform="translate(-1726.769 5523.916)" fill="#ea8803" opacity="0.28"/>
  <path id="Path_59569" data-name="Path 59569" d="M1729.7-5509l-.687-7.16v-1.375l.688-1.26,2.119-.917h1.6l1.661.629.745.8.516.744,1.031-.744,1.088-.8.458-.629h3.036l1.146.917.688,1.26a5.322,5.322,0,0,0,0,1.375c.115.344-.286,1.489,0,1.833s0,2.177,0,2.177-.63,2.062-.687,2.291-.344,1.49-.344,1.49v.287h-12.6Z" transform="translate(-1726.471 5521.338)" fill="#ea8803" opacity="0.39"/>
  <g id="model" transform="translate(0 0)">
    <path id="strapless_dress" data-name="strapless dress" d="M26.927,29.865l-.114-.076c-3.145-1.263-6.493-4.269-6.884-8.16l-.442-4.472h4.484c.164.531.328,1.061.467,1.592a31.579,31.579,0,0,1,1.011,6.076c0,.4.152,4.925.215,5.379,0,.7,2.2,1.723,2.2,1.025,0-.429.177-6.013.1-6.4a34.636,34.636,0,0,0-1.036-6.733,35.6,35.6,0,0,0-1.263-3.562l1.415-6.316A5.053,5.053,0,0,0,22.19,2,5.141,5.141,0,0,0,18.6,3.478l-.518.531-.518-.531A5.141,5.141,0,0,0,13.98,2,5.053,5.053,0,0,0,9.041,8.164l1.415,6.316a35.6,35.6,0,0,0-1.213,3.613,36.556,36.556,0,0,0,0,18.316,1.263,1.263,0,0,0,1.263.96H25.664a1.263,1.263,0,0,0,1.263-.96c.316-1.263.581-2.615.771-3.916a10.464,10.464,0,0,1,.164-1.263A1.263,1.263,0,0,0,26.927,29.865ZM12.009,5.474a2.6,2.6,0,0,1,3.789-.2l1.415,1.415a1.263,1.263,0,0,0,1.794,0l1.415-1.415a2.6,2.6,0,0,1,3.789.2,2.526,2.526,0,0,1,.505,2.147l-1.579,6.733a2.046,2.046,0,0,0,0,.278H13.032a2.046,2.046,0,0,0,0-.278L11.5,7.621a2.526,2.526,0,0,1,.505-2.147ZM24.666,34.842H11.5a33.739,33.739,0,0,1,.265-16.093c.139-.531.3-1.061.467-1.592H16.7l-.455,4.56a9.36,9.36,0,0,1-3.208,5.874,1.261,1.261,0,1,0,1.693,1.869,12.632,12.632,0,0,0,3.36-4.838,13.528,13.528,0,0,0,7.086,7.187v.328c-.152.9-.316,1.806-.505,2.7Z" transform="translate(-8.077 -2)" fill="#ea8803"/>
  </g>
</svg>
