<svg id="edit-2_broken" data-name="edit-2/broken" xmlns="http://www.w3.org/2000/svg" width="16.579" height="16.579" viewBox="0 0 16.579 16.579">
  <g id="vuesax_broken_edit-2" data-name="vuesax/broken/edit-2">
    <g id="edit-2">
      <path id="Vector" d="M9.238,5.531l.926-.981c.981-1.036,1.423-2.217-.1-3.661S7.38-.043,6.4.993L.728,7a2.107,2.107,0,0,0-.463.988L.009,10.222A1.055,1.055,0,0,0,1.3,11.445l2.224-.38a1.983,1.983,0,0,0,.96-.518L7.214,7.659" transform="translate(2.761 1.494)" fill="none" stroke="#094271" stroke-linecap="round" stroke-linejoin="round" stroke-width="1.2"/>
      <path id="Vector-2" data-name="Vector" d="M0,0A4.232,4.232,0,0,0,3.765,3.558" transform="translate(8.214 3.489)" fill="none" stroke="#094271" stroke-linecap="round" stroke-linejoin="round" stroke-width="1.2"/>
      <path id="Vector-3" data-name="Vector" d="M0,0H7.6" transform="translate(2.072 15.198)" fill="none" stroke="#094271" stroke-linecap="round" stroke-linejoin="round" stroke-width="1.2"/>
      <path id="Vector-4" data-name="Vector" d="M0,0H2.072" transform="translate(12.434 15.198)" fill="none" stroke="#094271" stroke-linecap="round" stroke-linejoin="round" stroke-width="1.2"/>
      <path id="Vector-5" data-name="Vector" d="M0,0H16.579V16.579H0Z" fill="none" opacity="0"/>
    </g>
  </g>
</svg>
