<svg id="noun-power-point-963351" xmlns="http://www.w3.org/2000/svg" width="70.544" height="64.867" viewBox="0 0 70.544 64.867">
  <path id="Path_59526" data-name="Path 59526" d="M170.2,60.082H122.022a11.161,11.161,0,0,0-11.184,11.184v30.111a11.161,11.161,0,0,0,11.184,11.184h18.841l-8.517,7.915a2.574,2.574,0,0,0-.172,3.613,2.763,2.763,0,0,0,1.892.86,2.558,2.558,0,0,0,1.721-.688l10.324-9.549,10.238,9.463a2.731,2.731,0,0,0,1.721.688,2.44,2.44,0,0,0,1.892-.86,2.5,2.5,0,0,0-.172-3.613l-8.431-7.829H170.2a11.161,11.161,0,0,0,11.184-11.184V71.266A11.161,11.161,0,0,0,170.2,60.082Zm6.022,41.294A5.985,5.985,0,0,1,170.2,107.4H122.021A5.985,5.985,0,0,1,116,101.377V71.266a5.985,5.985,0,0,1,6.022-6.022H170.2a5.985,5.985,0,0,1,6.022,6.022Z" transform="translate(-110.838 -60.082)" fill="#bed644"/>
  <path id="Path_59527" data-name="Path 59527" d="M233.908,220.5H191.581a2.581,2.581,0,0,0,0,5.162h42.327a2.535,2.535,0,0,0,2.581-2.581A2.588,2.588,0,0,0,233.908,220.5Z" transform="translate(-177.473 -196.842)" fill="#bed644"/>
  <path id="Path_59528" data-name="Path 59528" d="M278.665,163.33H244.081a2.581,2.581,0,1,0,0,5.162h34.584a2.535,2.535,0,0,0,2.581-2.581A2.589,2.589,0,0,0,278.665,163.33Z" transform="translate(-222.23 -148.103)" fill="#bed644"/>
  <path id="Path_59529" data-name="Path 59529" d="M226.165,277.08H191.581a2.581,2.581,0,0,0,0,5.162h34.584a2.535,2.535,0,0,0,2.581-2.581A2.589,2.589,0,0,0,226.165,277.08Z" transform="translate(-177.473 -245.077)" fill="#bed644"/>
</svg>
