<svg xmlns="http://www.w3.org/2000/svg" width="118" height="118" viewBox="0 0 118 118">
  <g id="Group_174930" data-name="Group 174930" transform="translate(-240.943 -737.943)">
    <g id="Vector" transform="translate(253.234 747.775)" fill="none">
      <path d="M88.5,40.267H74.291A21.172,21.172,0,0,1,53.149,19.126V4.917A4.931,4.931,0,0,0,48.233,0H27.386C12.242,0,0,9.833,0,27.386V70.948C0,88.5,12.242,98.333,27.386,98.333H66.031c15.143,0,27.386-9.833,27.386-27.386V45.184A4.931,4.931,0,0,0,88.5,40.267Z" stroke="none"/>
      <path d="M 27.38583374023438 5 C 24.18582916259766 5 21.17348480224609 5.507247924804688 18.43247985839844 6.507652282714844 C 15.74884796142578 7.487136840820312 13.39527893066406 8.916252136230469 11.43717956542969 10.75531768798828 C 9.4276123046875 12.6427001953125 7.860198974609375 14.94290161132812 6.778465270996094 17.59201812744141 C 5.598365783691406 20.48201751708984 5 23.77713775634766 5 27.38583374023438 L 5 70.94750213623047 C 5 74.55619812011719 5.598365783691406 77.851318359375 6.778465270996094 80.74131774902344 C 7.860198974609375 83.39043426513672 9.4276123046875 85.69063568115234 11.43717956542969 87.57801818847656 C 13.39527893066406 89.41708374023438 15.74884796142578 90.84619903564453 18.43247985839844 91.82568359375 C 21.17348480224609 92.82608795166016 24.18582916259766 93.33333587646484 27.38583374023438 93.33333587646484 L 66.03083038330078 93.33333587646484 C 69.2308349609375 93.33333587646484 72.24317932128906 92.82608795166016 74.98418426513672 91.82568359375 C 77.66781616210938 90.84619903564453 80.02138519287109 89.41708374023438 81.97948455810547 87.57801818847656 C 83.98905181884766 85.69063568115234 85.55646514892578 83.39043426513672 86.63819885253906 80.74131774902344 C 87.81829833984375 77.851318359375 88.41666412353516 74.55619812011719 88.41666412353516 70.94750213623047 L 88.41666412353516 45.26750183105469 L 74.29083251953125 45.26750183105469 C 59.87626647949219 45.26750183105469 48.14916610717773 33.54039764404297 48.14916610717773 19.12583160400391 L 48.14916610717773 5 L 27.38583374023438 5 M 27.38583374023438 0 L 48.23249816894531 0 C 50.93666458129883 0 53.14916610717773 2.212501525878906 53.14916610717773 4.916664123535156 L 53.14916610717773 19.12583160400391 C 53.14916610717773 30.77833557128906 62.63833236694336 40.26750183105469 74.29083251953125 40.26750183105469 L 88.5 40.26750183105469 C 91.20416259765625 40.26750183105469 93.41666412353516 42.47999954223633 93.41666412353516 45.18416976928711 L 93.41666412353516 70.94750213623047 C 93.41666412353516 88.5 81.17416381835938 98.33333587646484 66.03083038330078 98.33333587646484 L 27.38583374023438 98.33333587646484 C 12.24250030517578 98.33333587646484 0 88.5 0 70.94750213623047 L 0 27.38583374023438 C 0 9.833335876464844 12.24250030517578 0 27.38583374023438 0 Z" stroke="none" fill="#c4c4c4"/>
    </g>
    <g id="Vector-2" data-name="Vector" transform="translate(313.12 747.85)" fill="none">
      <path d="M5.507.958A3.213,3.213,0,0,0,0,3.121V20.281A13.4,13.4,0,0,0,13.521,33.408c4.671.049,11.161.049,16.717.049A3.1,3.1,0,0,0,32.548,28.2C25.468,21.067,12.783,8.235,5.507.958Z" stroke="none"/>
      <path d="M 4.999998092651367 7.529144287109375 L 4.999998092651367 20.28054237365723 C 4.999998092651367 22.39360237121582 5.874397277832031 24.40761184692383 7.462127685546875 25.95156288146973 C 9.091117858886719 27.53565216064453 11.24280738830566 28.40804290771484 13.52082824707031 28.40804290771484 L 13.57345771789551 28.40832328796387 C 17.01759719848633 28.44457626342773 21.41891860961914 28.45394134521484 25.76274871826172 28.45635986328125 C 24.18745422363281 26.86765480041504 22.47216796875 25.13673782348633 20.70048904418945 23.34891319274902 C 15.44860458374023 18.04917144775391 9.628608703613281 12.17613792419434 4.999998092651367 7.529144287109375 M 3.219667434692383 0 C 4.023725509643555 8.0108642578125e-05 4.844850540161133 0.2962303161621094 5.506668090820312 0.9580421447753906 C 12.78332710266113 8.234712600708008 25.46832656860352 21.06720352172852 32.5483283996582 28.19637298583984 C 34.51499938964844 30.16304206848145 33.03999710083008 33.45720291137695 30.23749732971191 33.45720291137695 C 24.68166732788086 33.45720291137695 18.1916675567627 33.45721435546875 13.52082824707031 33.40804290771484 C 6.096668243408203 33.40804290771484 -3.814697265625e-06 27.4588737487793 -3.814697265625e-06 20.28054237365723 L -3.814697265625e-06 3.121372222900391 C -3.814697265625e-06 1.238956451416016 1.574630737304688 -0.000164031982421875 3.219667434692383 0 Z" stroke="none" fill="#c4c4c4"/>
    </g>
    <g id="Vector-3" data-name="Vector" transform="translate(358.943 855.943) rotate(180)" fill="none" opacity="0">
      <path d="M0,0H118V118H0Z" stroke="none"/>
      <path d="M 5 5 L 5 113 L 113 113 L 113 5 L 5 5 M 0 0 L 118 0 L 118 118 L 0 118 L 0 0 Z" stroke="none" fill="#c4c4c4"/>
    </g>
  </g>
</svg>
