<svg id="vuesax_broken_global" data-name="vuesax/broken/global" xmlns="http://www.w3.org/2000/svg" width="19.566" height="19.566" viewBox="0 0 19.566 19.566">
  <g id="global">
    <path id="Vector" d="M16.305,8.153A8.153,8.153,0,1,1,8.153,0,8.153,8.153,0,0,1,16.305,8.153Z" transform="translate(1.631 1.631)" fill="none" stroke="#3f4653" stroke-linecap="round" stroke-linejoin="round" stroke-width="1.5"/>
    <path id="Vector-2" data-name="Vector" d="M0,0A23.28,23.28,0,0,0,1.19,7.337H.375" transform="translate(6.147 9.783)" fill="none" stroke="#3f4653" stroke-linecap="round" stroke-linejoin="round" stroke-width="1.5"/>
    <path id="Vector-3" data-name="Vector" d="M.082,0H.9A23.444,23.444,0,0,0,0,3.636" transform="translate(6.441 2.446)" fill="none" stroke="#3f4653" stroke-linecap="round" stroke-linejoin="round" stroke-width="1.5"/>
    <path id="Vector-4" data-name="Vector" d="M.921,0A23.688,23.688,0,0,1,0,3.783" transform="translate(12.229 13.338)" fill="none" stroke="#3f4653" stroke-linecap="round" stroke-linejoin="round" stroke-width="1.5"/>
    <path id="Vector-5" data-name="Vector" d="M0,0A23.28,23.28,0,0,1,1.19,7.337" transform="translate(12.229 2.446)" fill="none" stroke="#3f4653" stroke-linecap="round" stroke-linejoin="round" stroke-width="1.5"/>
    <path id="Vector-6" data-name="Vector" d="M0,.815V0A23.173,23.173,0,0,0,14.675,0V.815" transform="translate(2.446 12.229)" fill="none" stroke="#3f4653" stroke-linecap="round" stroke-linejoin="round" stroke-width="1.5"/>
    <path id="Vector-7" data-name="Vector" d="M0,1.192a23.173,23.173,0,0,1,14.675,0" transform="translate(2.446 6.145)" fill="none" stroke="#3f4653" stroke-linecap="round" stroke-linejoin="round" stroke-width="1.5"/>
    <path id="Vector-8" data-name="Vector" d="M0,0H19.566V19.566H0Z" fill="none" opacity="0"/>
  </g>
</svg>
