<svg xmlns="http://www.w3.org/2000/svg" xmlns:xlink="http://www.w3.org/1999/xlink" width="32.117" height="32.117" viewBox="0 0 32.117 32.117">
  <defs>
    <clipPath id="clip-path">
      <path id="Path_59582" data-name="Path 59582" d="M0-682.665H32.117v32.117H0Z" transform="translate(0 682.665)"/>
    </clipPath>
  </defs>
  <g id="hair" transform="translate(0 0.001)">
    <g id="Group_173888" data-name="Group 173888" transform="translate(0 -0.001)" clip-path="url(#clip-path)">
      <path id="Path_59576" data-name="Path 59576" d="M-327.819-428.271a18.094,18.094,0,0,0-13.222,0H-344v-12.264l15.4-8.879,3.313,2.288v18.856Z" transform="translate(350.488 454.482)" fill="#ea8803" opacity="0.37"/>
      <path id="Path_59577" data-name="Path 59577" d="M-521.752-374.228l-2.909-10.755h0a10.453,10.453,0,0,0-10.089-7.72,10.407,10.407,0,0,0-6.732,2.458,11.427,11.427,0,0,0-2.541,4.008l-3.049,11.283c-1.3,4.8.249,9.725,4.919,11.725a12.4,12.4,0,0,0,2.948.448,13.252,13.252,0,0,1-2.741-8.56v-7.587l8.593-3.583a6.528,6.528,0,0,0,4.374-5.326c.018-.1.037-.183.055-.267a7.979,7.979,0,0,1,2,5.083v11.682a15.425,15.425,0,0,1-2.772,9.188,10.045,10.045,0,0,0,6.954-3.2c1.594-2.326,1.925-5.409.989-8.869" transform="translate(550.806 393.174)" fill="#ea8803" opacity="0.22"/>
      <path id="Path_59578" data-name="Path 59578" d="M-25.8,0a8.856,8.856,0,0,1,1.157,1.426,8.789,8.789,0,0,1,1.427,4.816V17.924a13.059,13.059,0,0,1-3.857,9.815h2.823a9.959,9.959,0,0,0,5.844-3.831,8.75,8.75,0,0,1-5.951,2.577c1.413-2.276,2.4-4.032,2.4-8.561V6.242C-21.963,3.8-23.891.809-25.8,0" transform="translate(46.473 3.908)" fill="#ea8803" opacity="0.74"/>
      <path id="Path_59579" data-name="Path 59579" d="M-33.035-309.718-29.984-321h0a10.422,10.422,0,0,1,2.1-4.008,10.453,10.453,0,0,0-3.357,5.262h0l-2.909,10.755c-1.649,6.1.634,11.024,6.833,12.7h2.823a14.1,14.1,0,0,1-1.116-1.255,8.22,8.22,0,0,1-2.321-.448c-4.67-2-6.4-6.928-5.107-11.725" transform="translate(37.211 327.937)" fill="#ea8803" opacity="0.74"/>
      <path id="Path_59580" data-name="Path 59580" d="M-174.055-124.075l-7.338,3.06v-4.2a9.33,9.33,0,0,1,1.329-4.987,8.8,8.8,0,0,0-2.583,6.242v5.349l8.593-3.583a7.138,7.138,0,0,0,4.374-6.581c-.306,1.779-1.724,3.586-4.374,4.7" transform="translate(191.51 134.109)" fill="#ea8803" opacity="0.74"/>
      <path id="Path_59581" data-name="Path 59581" d="M-405.866-520.579a15.177,15.177,0,0,0-4.774-1.136m-1.761-.075a16.533,16.533,0,0,0-6.535,1.222m2.273-11.9a9.986,9.986,0,0,0,6.178-9.279m-9.1,10.5,8.593-3.583a7.126,7.126,0,0,0,4.373-6.548m4.25,16.464a13.06,13.06,0,0,1-3.857,9.815c6.2-1.677,8.482-6.6,6.833-12.7l-2.909-10.755h0m-.623-1.7a10.45,10.45,0,0,0-9.466-6.018,10.453,10.453,0,0,0-10.089,7.72h0l-2.909,10.755c-1.649,6.1.634,11.024,6.833,12.7a13.059,13.059,0,0,1-3.857-9.815m13.359,9.815a13.06,13.06,0,0,0,3.857-9.815V-536.6a8.8,8.8,0,0,0-2.583-6.242m-9.227,0a8.8,8.8,0,0,0-2.583,6.242v9.318m0,2.364a13.06,13.06,0,0,0,3.857,9.815" transform="translate(428.448 546.75)" fill="none" stroke="#ea8803" stroke-linecap="round" stroke-linejoin="round" stroke-miterlimit="10" stroke-width="1"/>
    </g>
  </g>
</svg>
