<svg xmlns="http://www.w3.org/2000/svg" width="65.387" height="65.387" viewBox="0 0 65.387 65.387">
  <path id="noun-jobs-4461970" d="M180.342,62.559H170.283V60.045a7.544,7.544,0,0,0-7.545-7.545H147.649a7.544,7.544,0,0,0-7.545,7.545v2.515H130.045A7.544,7.544,0,0,0,122.5,70.1V85.193a2.515,2.515,0,0,0,2.515,2.515v22.634a7.544,7.544,0,0,0,7.545,7.545h45.268a7.544,7.544,0,0,0,7.545-7.545V87.708a2.515,2.515,0,0,0,2.515-2.515V70.1a7.544,7.544,0,0,0-7.545-7.545Zm-35.208-2.515a2.515,2.515,0,0,1,2.515-2.515h15.089a2.515,2.515,0,0,1,2.515,2.515v2.515H145.134ZM127.53,70.1a2.515,2.515,0,0,1,2.515-2.515h50.3a2.515,2.515,0,0,1,2.515,2.515V82.678H162.738a7.545,7.545,0,0,0-15.089,0H127.53Zm25.149,12.574a2.515,2.515,0,1,1,5.03,0v5.03a2.515,2.515,0,1,1-5.03,0Zm27.664,27.664a2.515,2.515,0,0,1-2.515,2.515H132.56a2.515,2.515,0,0,1-2.515-2.515V87.708h17.6a7.545,7.545,0,0,0,15.089,0h17.6Z" transform="translate(-122.5 -52.5)" fill="#bed644"/>
</svg>
