<svg id="magicpen_bulk" data-name="magicpen/bulk" xmlns="http://www.w3.org/2000/svg" width="34.047" height="34.047" viewBox="0 0 34.047 34.047">
  <g id="vuesax_bulk_magicpen" data-name="vuesax/bulk/magicpen">
    <g id="magicpen">
      <path id="Vector" d="M6.37,5.135,4.256,7.249,0,2.993,2.114.88A3.009,3.009,0,0,1,6.37,5.135Z" transform="translate(21.293 5.504)" fill="#ea8803"/>
      <path id="Vector-2" data-name="Vector" d="M21.467,4.256,5.139,20.584A3.009,3.009,0,0,1,.883,16.328L17.211,0Z" transform="translate(4.082 8.497)" fill="#ea8803" opacity="0.4"/>
      <path id="Vector-3" data-name="Vector" d="M4.718,2.661,5.3.689A.549.549,0,0,0,5.172.164.54.54,0,0,0,4.632.022L2.661.6.689.022A.549.549,0,0,0,.164.15.517.517,0,0,0,.036.675L.6,2.661.022,4.632a.549.549,0,0,0,.128.525.517.517,0,0,0,.525.128l1.986-.567L4.632,5.3a.6.6,0,0,0,.156.028.574.574,0,0,0,.383-.156A.517.517,0,0,0,5.3,4.647Z" transform="translate(9.398 2.305)" fill="#ea8803"/>
      <path id="Vector-4" data-name="Vector" d="M4.718,2.661,5.3.689A.549.549,0,0,0,5.172.164.517.517,0,0,0,4.647.036L2.661.6.689.022A.549.549,0,0,0,.164.15.517.517,0,0,0,.036.675L.6,2.661.022,4.632a.549.549,0,0,0,.128.525.517.517,0,0,0,.525.128L2.646,4.7l1.972.582a.532.532,0,0,0,.156.014.574.574,0,0,0,.383-.156.517.517,0,0,0,.128-.525Z" transform="translate(3.723 10.816)" fill="#ea8803"/>
      <path id="Vector-5" data-name="Vector" d="M4.692,2.649,5.273.677A.549.549,0,0,0,5.146.152.517.517,0,0,0,4.621.024L2.649.606.677.024A.549.549,0,0,0,.152.152.517.517,0,0,0,.024.677L.606,2.649.024,4.621a.549.549,0,0,0,.128.525.517.517,0,0,0,.525.128l1.972-.582,1.972.582a.532.532,0,0,0,.156.014.574.574,0,0,0,.383-.156.517.517,0,0,0,.128-.525Z" transform="translate(25.028 17.921)" fill="#ea8803"/>
      <path id="Vector-6" data-name="Vector" d="M0,0H34.047V34.047H0Z" fill="none" opacity="0"/>
    </g>
  </g>
</svg>
