<svg id="message-text_broken" data-name="message-text/broken" xmlns="http://www.w3.org/2000/svg" width="24" height="24" viewBox="0 0 24 24">
  <g id="vuesax_broken_message-text" data-name="vuesax/broken/message-text">
    <g id="message-text">
      <path id="Vector" d="M0,6Q0,0,6,0h8q6,0,6,6v5q0,6-6,6h-.5a1.014,1.014,0,0,0-.8.4l-1.5,2a1.421,1.421,0,0,1-2.4,0l-1.5-2a1.13,1.13,0,0,0-.8-.4H6c-4,0-6-1-6-6V10" transform="translate(2 2)" fill="none" stroke="#3f4653" stroke-linecap="round" stroke-linejoin="round" stroke-width="1.5"/>
      <path id="Vector-2" data-name="Vector" d="M0,0H1.01" transform="translate(15.99 8)" fill="none" stroke="#3f4653" stroke-linecap="round" stroke-linejoin="round" stroke-width="1.5"/>
      <path id="Vector-3" data-name="Vector" d="M0,0H5.51" transform="translate(7 8)" fill="none" stroke="#3f4653" stroke-linecap="round" stroke-linejoin="round" stroke-width="1.5"/>
      <path id="Vector-4" data-name="Vector" d="M0,0H6" transform="translate(7 13)" fill="none" stroke="#3f4653" stroke-linecap="round" stroke-linejoin="round" stroke-width="1.5"/>
      <path id="Vector-5" data-name="Vector" d="M0,0H24V24H0Z" fill="none" opacity="0"/>
    </g>
  </g>
</svg>
