<svg id="receipt-text_broken" data-name="receipt-text/broken" xmlns="http://www.w3.org/2000/svg" width="40" height="40" viewBox="0 0 40 40">
  <g id="vuesax_broken_receipt-text" data-name="vuesax/broken/receipt-text">
    <g id="receipt-text">
      <path id="Vector" d="M0,15V31.667A1.661,1.661,0,0,0,2.667,33l2.85-2.133a1.679,1.679,0,0,1,2.2.167l2.767,2.783a1.68,1.68,0,0,0,2.367,0l2.8-2.8a1.652,1.652,0,0,1,2.167-.15L20.667,33a1.67,1.67,0,0,0,2.667-1.333V3.333A3.343,3.343,0,0,1,26.667,0h-20C1.667,0,0,2.983,0,6.667V8.333" transform="translate(3.333 3.333)" fill="none" stroke="#0e9096" stroke-linecap="round" stroke-linejoin="round" stroke-width="3"/>
      <path id="Vector-2" data-name="Vector" d="M10,6.667V10.7A4.008,4.008,0,0,1,5.7,15H0V3.35A3.364,3.364,0,0,1,3.367,0,6.658,6.658,0,0,1,10,6.667Z" transform="translate(26.667 3.333)" fill="none" stroke="#0e9096" stroke-linecap="round" stroke-linejoin="round" stroke-width="3"/>
      <path id="Vector-3" data-name="Vector" d="M0,0H1.7" transform="translate(18.3 15)" fill="none" stroke="#0e9096" stroke-linecap="round" stroke-linejoin="round" stroke-width="3"/>
      <path id="Vector-4" data-name="Vector" d="M0,0H3.267" transform="translate(10 15)" fill="none" stroke="#0e9096" stroke-linecap="round" stroke-linejoin="round" stroke-width="3"/>
      <path id="Vector-5" data-name="Vector" d="M0,0H7.5" transform="translate(11.25 21.667)" fill="none" stroke="#0e9096" stroke-linecap="round" stroke-linejoin="round" stroke-width="3"/>
      <path id="Vector-6" data-name="Vector" d="M0,0H40V40H0Z" fill="none" opacity="0"/>
    </g>
  </g>
</svg>
