<svg id="profile-remove_bulk" data-name="profile-remove/bulk" xmlns="http://www.w3.org/2000/svg" width="19.915" height="19.915" viewBox="0 0 19.915 19.915">
  <g id="vuesax_bulk_profile-remove" data-name="vuesax/bulk/profile-remove">
    <g id="profile-remove">
      <path id="Vector" d="M3.941,0a3.938,3.938,0,0,0-.1,7.875.669.669,0,0,1,.183,0h.058A3.938,3.938,0,0,0,3.941,0Z" transform="translate(6.016 1.66)" fill="#094271"/>
      <path id="Vector-2" data-name="Vector" d="M10.057,1.158a8.239,8.239,0,0,0-8.422,0A3.251,3.251,0,0,0,0,3.829,3.248,3.248,0,0,0,1.626,6.493a7.667,7.667,0,0,0,4.215,1.17,7.667,7.667,0,0,0,4.215-1.17,3.274,3.274,0,0,0,1.626-2.68A3.254,3.254,0,0,0,10.057,1.158Z" transform="translate(4.116 10.592)" fill="#094271" opacity="0.4"/>
      <path id="Vector-3" data-name="Vector" d="M0,0H19.915V19.915H0Z" fill="none" opacity="0"/>
    </g>
  </g>
</svg>
