<svg xmlns="http://www.w3.org/2000/svg" width="18.656" height="20.729" viewBox="0 0 18.656 20.729">
  <g id="noun-notification-5697508" transform="translate(-113.751 -17.5)">
    <path id="Path_53274" data-name="Path 53274" d="M123.079,17.5a8.824,8.824,0,0,0-8.71,7.806l-.581,4.724a4.813,4.813,0,0,0,4.733,5.435h.41a4.493,4.493,0,0,0,8.294,0h.41a4.813,4.813,0,0,0,4.733-5.435l-.581-4.724a8.824,8.824,0,0,0-8.71-7.806Zm2.586,17.965h-5.172a3.11,3.11,0,0,0,5.171,0Zm-9.924-9.99a7.38,7.38,0,0,1,14.676,0L131,30.2a3.432,3.432,0,0,1-3.362,3.885h-9.114A3.431,3.431,0,0,1,115.16,30.2Z" fill="#3f4653" fill-rule="evenodd"/>
  </g>
</svg>
