<svg xmlns="http://www.w3.org/2000/svg" width="137.303" height="152.562" viewBox="0 0 137.303 152.562">
  <g id="noun-notification-5697508" transform="translate(-113.751 -17.5)">
    <path id="Path_53274" data-name="Path 53274" d="M182.4,17.5c-32.645,0-60.075,24.694-64.1,57.451l-4.276,34.767c-2.6,21.151,13.632,40,34.836,40h3.019a33.068,33.068,0,0,0,61.042,0h3.02c21.206,0,37.44-18.852,34.836-40L246.5,74.951C242.475,42.195,215.047,17.5,182.4,17.5Zm19.03,132.22H163.372a22.889,22.889,0,0,0,38.061,0ZM128.4,76.191c3.417-27.785,26.625-48.521,54.007-48.521s50.59,20.735,54.007,48.521l4.276,34.767c1.879,15.271-9.831,28.591-24.743,28.591H148.863c-14.912,0-26.621-13.32-24.743-28.591Z" transform="translate(0)" fill="#cdcdcd" fill-rule="evenodd"/>
  </g>
</svg>
