<svg xmlns="http://www.w3.org/2000/svg" width="141.641" height="80.876" viewBox="0 0 141.641 80.876">
  <g id="Group_175035" data-name="Group 175035" transform="translate(-116.051 -474)">
    <g id="Ellipse_7686" data-name="Ellipse 7686" transform="translate(241.483 478)" fill="#fff" stroke="#0e9096" stroke-width="1" opacity="0.41">
      <circle cx="7" cy="7" r="7" stroke="none"/>
      <circle cx="7" cy="7" r="6.5" fill="none"/>
    </g>
    <g id="Ellipse_7687" data-name="Ellipse 7687" transform="translate(120.483 542)" fill="#fff" stroke="#bed644" stroke-width="1" opacity="0.41">
      <circle cx="6" cy="6" r="6" stroke="none"/>
      <circle cx="6" cy="6" r="5.5" fill="none"/>
    </g>
    <path id="Path_59560" data-name="Path 59560" d="M15,8S9.055,9,5.3,7,0,0,0,0" transform="translate(117.483 475)" fill="none" stroke="#0e9096" stroke-width="3" opacity="0.3"/>
    <path id="Path_59561" data-name="Path 59561" d="M10.865.18S6.559-.542,3.842.907,0,5.975,0,5.975" transform="translate(246.45 539.203) rotate(-2)" fill="none" stroke="#bed644" stroke-width="2" opacity="0.3"/>
    <g id="dollar-square_bulk" data-name="dollar-square/bulk" transform="translate(148.178 474)">
      <g id="vuesax_bulk_dollar-square" data-name="vuesax/bulk/dollar-square">
        <g id="dollar-square">
          <path id="Vector" d="M47.913,0h-28.3C7.327,0,0,7.333,0,19.633V47.917C0,60.251,7.327,67.584,19.618,67.584H47.879c12.29,0,19.618-7.333,19.618-19.633V19.633C67.53,7.333,60.2,0,47.913,0Z" transform="translate(6.646 6.646)" fill="#0e9096" opacity="0.4"/>
          <path id="Vector-2" data-name="Vector" d="M21.1,22.992l-5.018-1.805V9.64h1.2a5.161,5.161,0,0,1,4.885,5.382,2.493,2.493,0,1,0,4.985,0c0-5.791-4.42-10.491-9.869-10.491h-1.2V2.555a2.493,2.493,0,1,0-4.985,0V4.53H8.939A9.24,9.24,0,0,0,0,14c0,6.1,3.456,8.039,6.081,8.993L11.1,24.8V36.311H9.9a5.161,5.161,0,0,1-4.885-5.382,2.542,2.542,0,0,0-2.492-2.555A2.542,2.542,0,0,0,.033,30.929C.033,36.72,4.453,41.42,9.9,41.42h1.2v2.01a2.493,2.493,0,1,0,4.985,0V41.454h2.16a9.24,9.24,0,0,0,8.939-9.469C27.149,25.854,23.693,23.912,21.1,22.992ZM7.743,18.19C6.048,17.576,5.018,17,5.018,14.034a4.159,4.159,0,0,1,3.954-4.36h2.16v9.742Zm10.5,18.155h-2.16V26.6L19.44,27.8c1.695.613,2.725,1.192,2.725,4.156A4.187,4.187,0,0,1,18.243,36.345Z" transform="translate(26.82 17.446)" fill="#0e9096"/>
          <path id="Vector-3" data-name="Vector" d="M0,0H80.822V80.876H0Z" fill="none" opacity="0"/>
        </g>
      </g>
    </g>
  </g>
</svg>
