<svg id="call" xmlns="http://www.w3.org/2000/svg" width="19.915" height="19.915" viewBox="0 0 19.915 19.915">
  <path id="Vector" d="M0,10.132l2.713,2.713q.448-.4.871-.821A23.577,23.577,0,0,0,5.9,9.31a14.793,14.793,0,0,0,1.626-2.83,6.989,6.989,0,0,0,.6-2.713,4.293,4.293,0,0,0-.3-1.6A3.819,3.819,0,0,0,6.871.78,2.431,2.431,0,0,0,5.145,0a1.559,1.559,0,0,0-.672.149,1.353,1.353,0,0,0-.556.465L1.991,3.327a2.84,2.84,0,0,0-.332.581,1.312,1.312,0,0,0-.116.506A1.126,1.126,0,0,0,1.718,5a2.822,2.822,0,0,0,.465.589l.631.656a.444.444,0,0,1,.133.332.753.753,0,0,1-.025.191c-.025.066-.05.116-.066.166A6.886,6.886,0,0,1,2.083,8c-.373.431-.772.871-1.2,1.311C.581,9.6.29,9.883,0,10.132Z" transform="translate(10.132 1.66)" fill="#094271" opacity="0.4"/>
  <path id="Vector-2" data-name="Vector" d="M0,3.56a2.107,2.107,0,0,0,.124.705,2.027,2.027,0,0,0,.083.2,3.424,3.424,0,0,0,.564.846,3.741,3.741,0,0,0,1.361.979c.008,0,.017.008.025.008A4.192,4.192,0,0,0,3.751,6.6,6.915,6.915,0,0,0,6.456,6,14.574,14.574,0,0,0,9.31,4.356c.324-.241.647-.481.954-.738L7.551.9a4.662,4.662,0,0,1-.614.4c-.041.017-.091.041-.149.066A.573.573,0,0,1,6.58,1.4a.457.457,0,0,1-.34-.141L5.609.639a2.546,2.546,0,0,0-.6-.465A1.1,1.1,0,0,0,4.423,0a1.324,1.324,0,0,0-.506.108,3.209,3.209,0,0,0-.581.324L.589,2.381a1.259,1.259,0,0,0-.456.531A1.7,1.7,0,0,0,0,3.56Z" transform="translate(1.684 11.65)" fill="#094271"/>
  <path id="Vector-3" data-name="Vector" d="M19.915,0H0V19.915H19.915Z" fill="none" opacity="0"/>
</svg>
