<svg id="noun-police-4336491" xmlns="http://www.w3.org/2000/svg" width="87.853" height="60.398" viewBox="0 0 87.853 60.398">
  <path id="Path_59544" data-name="Path 59544" d="M295.419,194.85l1.849,5.507h5.984l-4.841,3.4,1.849,5.507-4.841-3.4-4.841,3.4,1.849-5.507-4.841-3.4h5.984Z" transform="translate(-251.491 -176.573)" fill="#bed644"/>
  <path id="Path_59545" data-name="Path 59545" d="M41.173,49.671a8.5,8.5,0,0,1,5.468,0l38.771,13.2a3.514,3.514,0,0,1,2.42,3.307A21.752,21.752,0,0,1,74.1,86.216V98.079a8.007,8.007,0,0,1-5.87,7.634l-3.03.88a76.492,76.492,0,0,1-42.6,0l-3.03-.88a8.007,8.007,0,0,1-5.87-7.634V86.216A21.753,21.753,0,0,1-.021,66.181,3.515,3.515,0,0,1,2.4,62.874Zm3.645,5.012a2.83,2.83,0,0,0-1.823,0L5.522,67.444a16.589,16.589,0,0,0,12.6,14.628l25.784,6.585,25.784-6.585a16.589,16.589,0,0,0,12.6-14.628ZM19.2,87.842V98.078a2.668,2.668,0,0,0,1.957,2.544l3.03.88a70.841,70.841,0,0,0,39.444,0l3.03-.88a2.669,2.669,0,0,0,1.957-2.544V87.842l-23.39,5.974a5.334,5.334,0,0,1-2.637,0Z" transform="translate(0.021 -49.219)" fill="#bed644" fill-rule="evenodd"/>
</svg>
