<svg id="profile-tick_linear" data-name="profile-tick/linear" xmlns="http://www.w3.org/2000/svg" width="18" height="18" viewBox="0 0 18 18">
  <g id="vuesax_linear_profile-tick" data-name="vuesax/linear/profile-tick">
    <g id="profile-tick">
      <path id="Vector" d="M0,1.14,1.14,2.28,3.42,0" transform="translate(10.83 13.148)" fill="none" stroke="#34aa16" stroke-linecap="round" stroke-linejoin="round" stroke-width="1.5"/>
      <path id="Vector-2" data-name="Vector" d="M3.45,6.653a1.363,1.363,0,0,0-.247,0,3.326,3.326,0,1,1,.247,0Z" transform="translate(5.67 1.5)" fill="none" stroke="#34aa16" stroke-linecap="round" stroke-linejoin="round" stroke-width="1.5"/>
      <path id="Vector-3" data-name="Vector" d="M5.119,6.472A6.862,6.862,0,0,1,1.361,5.438a2.46,2.46,0,0,1,0-4.4,7.325,7.325,0,0,1,7.507,0" transform="translate(3.874 9.885)" fill="none" stroke="#34aa16" stroke-linecap="round" stroke-linejoin="round" stroke-width="1.5"/>
      <path id="Vector-4" data-name="Vector" d="M0,0H18V18H0Z" transform="translate(18 18) rotate(180)" fill="none" opacity="0"/>
    </g>
  </g>
</svg>
