<svg id="category-2_bulk" data-name="category-2/bulk" xmlns="http://www.w3.org/2000/svg" width="19.915" height="19.915" viewBox="0 0 19.915 19.915">
  <g id="vuesax_bulk_category-2" data-name="vuesax/bulk/category-2">
    <g id="category-2">
      <path id="Vector" d="M4.34,0H2.763A2.469,2.469,0,0,0,0,2.763V4.34A2.469,2.469,0,0,0,2.763,7.1H4.34A2.469,2.469,0,0,0,7.1,4.34V2.763A2.469,2.469,0,0,0,4.34,0Z" transform="translate(11.152 1.66)" fill="#094271" opacity="0.4"/>
      <path id="Vector-2" data-name="Vector" d="M4.348,0H2.771A2.472,2.472,0,0,0,0,2.763V4.34A2.472,2.472,0,0,0,2.763,7.111H4.34A2.469,2.469,0,0,0,7.1,4.348V2.771A2.462,2.462,0,0,0,4.348,0Z" transform="translate(1.66 11.144)" fill="#094271" opacity="0.4"/>
      <path id="Vector-3" data-name="Vector" d="M7.119,3.56A3.56,3.56,0,1,1,3.56,0,3.56,3.56,0,0,1,7.119,3.56Z" transform="translate(1.66 1.66)" fill="#094271"/>
      <path id="Vector-4" data-name="Vector" d="M7.119,3.56A3.56,3.56,0,1,1,3.56,0,3.56,3.56,0,0,1,7.119,3.56Z" transform="translate(11.136 11.136)" fill="#094271"/>
      <path id="Vector-5" data-name="Vector" d="M0,0H19.915V19.915H0Z" fill="none" opacity="0"/>
    </g>
  </g>
</svg>
