<svg xmlns="http://www.w3.org/2000/svg" width="98.075" height="98.075" viewBox="0 0 98.075 98.075">
  <g id="sent" transform="translate(-5.998 -5.927)">
    <path id="Path_59609" data-name="Path 59609" d="M147.683,272.2,134.658,274.8l-7.325,1.464a5.734,5.734,0,0,1-6.747-6.747l1.464-7.323,2.605-13.027Z" transform="translate(-91.377 -195.476)" fill="#ffe7c7"/>
    <path id="Path_59610" data-name="Path 59610" d="M131.336,249.17,128.731,262.2l8.5,4.11,4.112,8.5,13.025-2.605Z" transform="translate(-98.058 -195.476)" fill="#ffa730"/>
    <path id="Path_59611" data-name="Path 59611" d="M253.268,22.48l-25.342,65.54L220.974,106a5.734,5.734,0,0,1-10.509.43L195.5,75.5a5.7,5.7,0,0,0-1.109-1.556l19.994-24.318,4.373-5.32L251.974,16.36a5.656,5.656,0,0,1,1.294,6.121Z" transform="translate(-151.167 -7.166)" fill="#ffe7c7"/>
    <path id="Path_59612" data-name="Path 59612" d="M227.926,228.786l-6.952,17.979a5.734,5.734,0,0,1-10.509.43L195.5,216.264a5.7,5.7,0,0,0-1.109-1.556l19.994-24.318C214.228,201.6,217.516,214.753,227.926,228.786Z" transform="translate(-151.167 -147.931)" fill="#ffb95a" opacity="0.46"/>
    <path id="Path_59613" data-name="Path 59613" d="M100.806,9.195,63.323,46.679l-20.1,20.1a5.7,5.7,0,0,0-1.556-1.109L10.736,50.7a5.734,5.734,0,0,1,.43-10.509L69.323,17.709,94.686,7.9A5.656,5.656,0,0,1,100.806,9.195Z" transform="translate(0 -0.001)" fill="#ffe7c7"/>
    <path id="Path_59614" data-name="Path 59614" d="M63.323,89.87l-20.1,20.1a5.7,5.7,0,0,0-1.556-1.109L10.736,93.9a5.734,5.734,0,0,1,.43-10.509L69.323,60.9a57.324,57.324,0,0,0-6,28.97Z" transform="translate(0 -43.193)" fill="#ffb95a" opacity="0.46"/>
    <circle id="Ellipse_7705" data-name="Ellipse 7705" cx="18.71" cy="18.71" r="18.71" transform="translate(63.636 53.561)" fill="#f1f2f5"/>
    <path id="Path_59615" data-name="Path 59615" d="M329.023,283.509a18.71,18.71,0,1,1-9.137-35.039S312.032,266.426,329.023,283.509Z" transform="translate(-237.542 -194.91)" fill="#ffe7c7"/>
    <path id="Path_59616" data-name="Path 59616" d="M362.787,278.443l-14.856,14.63a5.573,5.573,0,0,1-1.059.818,5.734,5.734,0,0,1-6.981-.835l-7.715-7.623a4.317,4.317,0,0,1,6.105-6.105l4.588,4.586.061.061a1.432,1.432,0,0,0,2.02.006L356.719,272.3a4.317,4.317,0,1,1,6.069,6.142Z" transform="translate(-261.593 -213.177)" fill="#ffe7c7"/>
    <path id="Path_59617" data-name="Path 59617" d="M346.873,323.553a5.734,5.734,0,0,1-6.981-.835l-7.715-7.623a4.317,4.317,0,0,1,6.105-6.105l4.588,4.586A33.355,33.355,0,0,0,346.873,323.553Z" transform="translate(-261.593 -242.838)" fill="#ffa730"/>
    <path id="Path_59618" data-name="Path 59618" d="M123.191,287.492l-2.6,13.024a5.734,5.734,0,0,0,6.748,6.748L140.4,304.65" transform="translate(-91.378 -226.473)" fill="none" stroke="#ea8803" stroke-linecap="round" stroke-linejoin="round" stroke-miterlimit="10" stroke-width="3"/>
    <path id="Path_59619" data-name="Path 59619" d="M62.2,20.462,11.167,40.194a5.734,5.734,0,0,0-.43,10.509L41.668,65.668a5.753,5.753,0,0,1,2.665,2.665L59.3,99.264a5.734,5.734,0,0,0,10.509-.43l3.832-9.911M68.717,17.94,94.686,7.9a5.733,5.733,0,0,1,7.415,7.415l-15,38.808M100.7,9.3,43.42,66.58" transform="translate(0 0)" fill="none" stroke="#ea8803" stroke-linecap="round" stroke-linejoin="round" stroke-miterlimit="10" stroke-width="3"/>
    <path id="Path_59620" data-name="Path 59620" d="M305.1,255.668a18.71,18.71,0,0,1,27.779-1.911m4.74,7.564a18.714,18.714,0,1,1-35.809.87" transform="translate(-237.499 -194.911)" fill="none" stroke="#ea8803" stroke-linecap="round" stroke-linejoin="round" stroke-miterlimit="10" stroke-width="3"/>
    <path id="Path_59621" data-name="Path 59621" d="M362.806,272.324a4.318,4.318,0,0,0-6.088-.018l-11.766,11.679a1.433,1.433,0,0,1-2.021-.006l-4.648-4.648a4.318,4.318,0,0,0-6.106,6.106l7.716,7.622a5.735,5.735,0,0,0,8.039.018l14.856-14.63A4.318,4.318,0,0,0,362.806,272.324Z" transform="translate(-261.593 -213.181)" fill="none" stroke="#ea8803" stroke-linecap="round" stroke-linejoin="round" stroke-miterlimit="10" stroke-width="3"/>
  </g>
</svg>
