<svg xmlns="http://www.w3.org/2000/svg" width="15.008" height="23.012" viewBox="0 0 15.008 23.012">
  <g id="noun-student-1984280" transform="translate(-175.003 -11.666)">
    <path id="Path_59427" data-name="Path 59427" d="M259.339,15.918a4.252,4.252,0,1,1-4.252-4.252,4.252,4.252,0,0,1,4.252,4.252" transform="translate(-72.579)" fill="#3f4653"/>
    <path id="Path_59428" data-name="Path 59428" d="M352.214,355.289l0,0,.325-.565Z" transform="translate(-169.61 -328.345)" fill="#3f4653"/>
    <path id="Path_59429" data-name="Path 59429" d="M317.931,241.156l-1.1,1.321.683.658.005.005-.608,1.061-.323.568,0,0-1.038-1.708.6-.58-1.1-1.321a.25.25,0,0,1,0-.32l1.251-1.5a.258.258,0,0,1,.385,0l1.251,1.5a.25.25,0,0,1,0,.32Z" transform="translate(-133.98 -217.824)" fill="#3f4653"/>
    <path id="Path_59430" data-name="Path 59430" d="M187.147,233.327h-.128l-3.96,7a.486.486,0,0,1-.313.238.417.417,0,0,1-.125.018.545.545,0,0,1-.125-.015.506.506,0,0,1-.31-.225l-4.262-7.014h-.057A2.85,2.85,0,0,0,175,236.156v9.14a1.548,1.548,0,0,0,1.553,1.538h11.9a1.548,1.548,0,0,0,1.553-1.538v-9.14a2.85,2.85,0,0,0-2.864-2.829Zm.363,5.5h-1.5a.5.5,0,1,1,0-1h1.5a.5.5,0,0,1,0,1Z" transform="translate(0 -212.156)" fill="#3f4653"/>
    <path id="Path_59431" data-name="Path 59431" d="M360.412,329.877l-.608,1.061.6-1.066Z" transform="translate(-176.877 -304.561)" fill="#3f4653"/>
  </g>
</svg>
