<svg id="noun-service-1318661" xmlns="http://www.w3.org/2000/svg" width="66.127" height="64.851" viewBox="0 0 66.127 64.851">
  <path id="Path_59546" data-name="Path 59546" d="M129.721,102.733a4.2,4.2,0,0,0,.42,3.192l7.9,13.693a4.245,4.245,0,0,0,5.712,1.6l5.544-3.108a19.991,19.991,0,0,0,1.932,1.092v5.292a4.212,4.212,0,0,0,4.2,4.2h14.953a4.212,4.212,0,0,0,4.2-4.2v-5.46c.42-.252.924-.5,1.344-.756l5.292,3.108a4.243,4.243,0,0,0,5.8-1.512l8.064-13.526a3.9,3.9,0,0,0,.42-3.192,4.327,4.327,0,0,0-1.932-2.6l-5.208-3.108V95.424l5.292-3.024a4.407,4.407,0,0,0,1.932-2.52,4.2,4.2,0,0,0-.42-3.192L187.263,73a4.245,4.245,0,0,0-5.712-1.6l-5.377,3.025c-.5-.336-1.092-.588-1.6-.924V68.04a4.212,4.212,0,0,0-4.2-4.2H155.426a4.212,4.212,0,0,0-4.2,4.2v5.292c-.588.336-1.176.588-1.68.924l-5.376-3.109a4.145,4.145,0,0,0-5.712,1.512l-8.149,13.525a4.182,4.182,0,0,0,1.428,5.8l5.208,3.108V97.1l-5.292,3.024a4.032,4.032,0,0,0-1.931,2.6Zm11.088-2.016a2.578,2.578,0,0,0,1.26-2.436,16.231,16.231,0,0,1-.084-2.016,20.584,20.584,0,0,1,.168-2.184,2.517,2.517,0,0,0-1.176-2.436L135.1,88.2l7.308-12.18,6.048,3.528a2.562,2.562,0,0,0,2.772-.168,11.633,11.633,0,0,1,3.36-1.848,2.527,2.527,0,0,0,1.68-2.352V69.048h13.272v6.216a2.385,2.385,0,0,0,1.512,2.268,24.97,24.97,0,0,1,3.612,2.016,2.591,2.591,0,0,0,2.688.168l6.048-3.444,7.056,12.265-5.963,3.275a2.578,2.578,0,0,0-1.26,2.436,16.228,16.228,0,0,1,.084,2.016,20.588,20.588,0,0,1-.168,2.184,2.516,2.516,0,0,0,1.176,2.436l5.88,3.528-7.224,12.18-5.965-3.528a2.577,2.577,0,0,0-2.688.084,18.814,18.814,0,0,1-3.36,1.848,2.585,2.585,0,0,0-1.512,2.352v6.216H156.181v-6.132a2.447,2.447,0,0,0-1.68-2.352,13.482,13.482,0,0,1-3.612-2.016,2.541,2.541,0,0,0-2.772-.168l-6.133,3.528-7.056-12.265Z" transform="translate(-129.587 -63.839)" fill="#bed644"/>
  <path id="Path_59547" data-name="Path 59547" d="M272.412,216.1a13.693,13.693,0,1,0-13.693-13.693A13.7,13.7,0,0,0,272.412,216.1Zm0-22.345a8.652,8.652,0,1,1-8.652,8.652A8.64,8.64,0,0,1,272.412,193.758Z" transform="translate(-239.349 -169.986)" fill="#bed644"/>
</svg>
