<svg xmlns="http://www.w3.org/2000/svg" width="35.338" height="35.338" viewBox="0 0 35.338 35.338">
  <g id="shop_bulk" data-name="shop/bulk" transform="translate(0 -0.001)">
    <g id="vuesax_bulk_shop" data-name="vuesax/bulk/shop" transform="translate(0 0.001)">
      <g id="shop">
        <path id="Vector" d="M27.593.412v8.82a7.365,7.365,0,0,1-7.362,7.362H7.362A7.365,7.365,0,0,1,0,9.232V.515a6,6,0,0,0,4.432,1.9A6.026,6.026,0,0,0,9.188,0,5.528,5.528,0,0,0,13.8,2.415,5.5,5.5,0,0,0,18.376.059a6.036,6.036,0,0,0,4.712,2.356A5.875,5.875,0,0,0,27.593.412Z" transform="translate(3.872 16.358)" fill="#ea8803" opacity="0.4"/>
        <path id="Vector-2" data-name="Vector" d="M9.949,0H1.115L.025,10.837a5.725,5.725,0,0,0,.427,2.8,5.5,5.5,0,0,0,5.095,3.3,5.486,5.486,0,0,0,5.109-3.283,5.858,5.858,0,0,0,.442-2.12v-.28Z" transform="translate(12.122 1.84)" fill="#ea8803"/>
        <path id="Vector-3" data-name="Vector" d="M13.031,10.336,12.6,6.258C11.985,1.811,9.968,0,5.654,0H0L1.09,11.043a5.288,5.288,0,0,1,.029.589A5.621,5.621,0,0,0,1.8,13.737a6.1,6.1,0,0,0,5.271,3.2,5.863,5.863,0,0,0,4.829-2.4A6,6,0,0,0,13.031,10.336Z" transform="translate(19.892 1.84)" fill="#ea8803" opacity="0.6"/>
        <path id="Vector-4" data-name="Vector" d="M7.39,0C3.062,0,1.059,1.811.426,6.3l-.4,4.049a6.052,6.052,0,0,0,1.207,4.3,5.9,5.9,0,0,0,4.756,2.282,6.1,6.1,0,0,0,5.256-3.166,5.481,5.481,0,0,0,.707-2.223L13.1.015H7.39Z" transform="translate(2.313 1.84)" fill="#ea8803" opacity="0.6"/>
        <path id="Vector-5" data-name="Vector" d="M3.283.052A3.674,3.674,0,0,0,0,3.718V8.474H8.466V4.234C8.481,1.156,6.67-.3,3.283.052Z" transform="translate(13.428 24.478)" fill="#ea8803"/>
        <path id="Vector-6" data-name="Vector" d="M0,0H35.338V35.338H0Z" fill="none" opacity="0"/>
      </g>
    </g>
  </g>
</svg>
