<svg xmlns="http://www.w3.org/2000/svg" width="45.642" height="64.315" viewBox="0 0 45.642 64.315">
  <path id="noun-support-5684650" d="M175.7,42.994a18.558,18.558,0,0,1,6.043-10.44l.082-.066a18.559,18.559,0,0,1,24.282.066l.078.073a18.56,18.56,0,0,1,5.965,10.361,4.917,4.917,0,0,1,4.661,4.9v1.2a4.889,4.889,0,0,1-1.438,3.458l-.007.007a4.907,4.907,0,0,1-3.084,1.427l-.067,1.564a4.585,4.585,0,0,1-3.22,4.219l-3.2,1.025a1.425,1.425,0,1,1-.871-2.714l3.2-1.025a1.742,1.742,0,0,0,1.243-1.628l.073-1.707a1.428,1.428,0,0,1-.581-1.149V44.41a1.426,1.426,0,0,1,.457-1.047,15.7,15.7,0,0,0-5.015-8.6l-.069-.056a15.722,15.722,0,0,0-20.548-.06l-.065.06a15.71,15.71,0,0,0-5.063,8.562,1.427,1.427,0,0,1,.566,1.139v8.149a1.43,1.43,0,0,1-1.43,1.43h-1.617a4.892,4.892,0,0,1-3.46-1.441l-.007-.007a4.89,4.89,0,0,1-1.438-3.458v-1.2a4.919,4.919,0,0,1,4.532-4.891Zm.561,2.845h-.186a2.053,2.053,0,0,0-2.047,2.046v1.2a2.046,2.046,0,0,0,2.047,2.047h.186Zm35.642,0h-.186v5.29h.186a2.046,2.046,0,0,0,2.047-2.047v-1.2a2.053,2.053,0,0,0-2.047-2.046ZM193.923,32.917a13.656,13.656,0,0,1,13.655,13.655,16.393,16.393,0,0,1-3.858,10.883,13.53,13.53,0,0,1-19.593,0,16.4,16.4,0,0,1-3.857-10.884,13.665,13.665,0,0,1,13.654-13.655Zm7.634,6.021a10.795,10.795,0,0,0-18.429,7.634,13.54,13.54,0,0,0,3.119,8.985,10.717,10.717,0,0,0,15.35,0,13.539,13.539,0,0,0,3.12-8.984,10.764,10.764,0,0,0-3.161-7.634ZM188.588,62.461h10.671A17.2,17.2,0,0,1,216.4,79.607V90.884a1.43,1.43,0,0,1-1.43,1.43h-42.1a1.43,1.43,0,0,1-1.43-1.43V79.607a17.1,17.1,0,0,1,5.036-12.11l.081-.075a17.094,17.094,0,0,1,12.029-4.96Zm10.671,2.86H188.588a14.251,14.251,0,0,0-10.027,4.13l-.062.067a14.243,14.243,0,0,0-4.2,10.089v9.846h39.243V79.607a14.32,14.32,0,0,0-14.286-14.286Z" transform="translate(-171.166 -27.998)" fill="#bed644"/>
</svg>
