<svg xmlns="http://www.w3.org/2000/svg" width="22.669" height="28.063" viewBox="0 0 22.669 28.063">
  <g id="Group_174313" data-name="Group 174313" transform="translate(-301.786 -164.786)">
    <g id="profile_bulk" data-name="profile/bulk" transform="translate(301.786 164.786)">
      <g id="vuesax_bulk_profile" data-name="vuesax/bulk/profile">
        <g id="profile">
          <path id="Vector" d="M4.487,0a4.482,4.482,0,0,0-.113,8.964.762.762,0,0,1,.208,0h.066A4.483,4.483,0,0,0,4.487,0Z" transform="translate(6.848 1.889)" fill="#094271" opacity="0.4"/>
          <path id="Vector-2" data-name="Vector" d="M11.448,1.318a9.378,9.378,0,0,0-9.587,0A3.728,3.728,0,0,0,0,4.368,3.7,3.7,0,0,0,1.851,7.4a8.727,8.727,0,0,0,4.8,1.332,8.727,8.727,0,0,0,4.8-1.332A3.727,3.727,0,0,0,13.3,4.35,3.719,3.719,0,0,0,11.448,1.318Z" transform="translate(4.685 12.047)" fill="#094271"/>
          <path id="Vector-3" data-name="Vector" d="M0,0H22.669V22.669H0Z" fill="none" opacity="0"/>
        </g>
      </g>
    </g>
    <line id="Line_449" data-name="Line 449" x1="9.787" transform="translate(308.577 191.849)" fill="none" stroke="#094271" stroke-linecap="round" stroke-width="2" opacity="0.44"/>
  </g>
</svg>
