<svg id="user_outline" data-name="user/outline" xmlns="http://www.w3.org/2000/svg" width="14.743" height="14.743" viewBox="0 0 14.743 14.743">
  <g id="vuesax_outline_user" data-name="vuesax/outline/user">
    <g id="user">
      <path id="Vector" d="M3.532,7.065A3.532,3.532,0,1,1,7.065,3.532,3.537,3.537,0,0,1,3.532,7.065Zm0-6.143A2.611,2.611,0,1,0,6.143,3.532,2.616,2.616,0,0,0,3.532.921Z" transform="translate(3.839 0.768)" fill="#292d32"/>
      <path id="Vector-2" data-name="Vector" d="M11.014,5.222a.464.464,0,0,1-.461-.461c0-2.119-2.162-3.839-4.816-3.839S.921,2.642.921,4.761a.464.464,0,0,1-.461.461A.464.464,0,0,1,0,4.761C0,2.138,2.574,0,5.738,0s5.738,2.138,5.738,4.761A.464.464,0,0,1,11.014,5.222Z" transform="translate(1.634 8.754)" fill="#292d32"/>
      <path id="Vector-3" data-name="Vector" d="M0,0H14.743V14.743H0Z" fill="none" opacity="0"/>
    </g>
  </g>
</svg>
