<svg id="empty-wallet_broken" data-name="empty-wallet/broken" xmlns="http://www.w3.org/2000/svg" width="155.535" height="155.535" viewBox="0 0 155.535 155.535">
  <g id="vuesax_broken_empty-wallet" data-name="vuesax/broken/empty-wallet">
    <g id="empty-wallet">
      <path id="Vector" d="M0,40.958V24.367A24.422,24.422,0,0,1,24.367,0h74.4a24.422,24.422,0,0,1,24.367,24.367V33.7H110.041a13.353,13.353,0,0,0-13.22,14.452c.583,7,7,12.119,14,12.119h12.313v7.712A24.422,24.422,0,0,1,98.765,92.349h-74.4A24.422,24.422,0,0,1,0,67.982" transform="translate(16.202 50.225)" fill="none" stroke="#cdcdcd" stroke-linecap="round" stroke-linejoin="round" stroke-width="8"/>
      <path id="Vector-2" data-name="Vector" d="M0,.806A12.315,12.315,0,0,1,16.655,12.342V36.968" transform="translate(79.582 13.257)" fill="none" stroke="#cdcdcd" stroke-linecap="round" stroke-linejoin="round" stroke-width="8"/>
      <path id="Vector-3" data-name="Vector" d="M0,56.641V27.025a18.455,18.455,0,0,1,11.924-17.3L37.652,0" transform="translate(16.202 23.784)" fill="none" stroke="#cdcdcd" stroke-linecap="round" stroke-linejoin="round" stroke-width="8"/>
      <path id="Vector-4" data-name="Vector" d="M33.24,6.61V19.96a6.654,6.654,0,0,1-6.481,6.61h-12.7c-7,0-13.415-5.12-14-12.119A13.016,13.016,0,0,1,3.948,3.888,12.916,12.916,0,0,1,13.28,0h13.48A6.654,6.654,0,0,1,33.24,6.61Z" transform="translate(112.963 83.924)" fill="none" stroke="#cdcdcd" stroke-linecap="round" stroke-linejoin="round" stroke-width="8"/>
      <path id="Vector-5" data-name="Vector" d="M0,0H45.364" transform="translate(45.364 77.768)" fill="none" stroke="#cdcdcd" stroke-linecap="round" stroke-linejoin="round" stroke-width="8"/>
      <path id="Vector-6" data-name="Vector" d="M0,0H155.535V155.535H0Z" fill="none" opacity="0"/>
    </g>
  </g>
</svg>
