<svg xmlns="http://www.w3.org/2000/svg" width="27.925" height="25.678" viewBox="0 0 27.925 25.678">
  <path id="Path_59526" data-name="Path 59526" d="M134.336,60.082H115.265a4.418,4.418,0,0,0-4.427,4.427v11.92a4.418,4.418,0,0,0,4.427,4.427h7.458l-3.371,3.133a1.019,1.019,0,0,0-.068,1.43,1.094,1.094,0,0,0,.749.34,1.013,1.013,0,0,0,.681-.273l4.087-3.78,4.053,3.746a1.081,1.081,0,0,0,.681.273.966.966,0,0,0,.749-.34.989.989,0,0,0-.068-1.43l-3.337-3.1h7.458a4.418,4.418,0,0,0,4.427-4.427V64.509a4.418,4.418,0,0,0-4.427-4.427Zm2.384,16.347a2.369,2.369,0,0,1-2.384,2.384H115.265a2.369,2.369,0,0,1-2.384-2.384V64.509a2.369,2.369,0,0,1,2.384-2.384h19.071a2.369,2.369,0,0,1,2.384,2.384Z" transform="translate(-110.838 -60.082)" fill="#bed644"/>
</svg>
