<svg xmlns="http://www.w3.org/2000/svg" width="37.557" height="25.82" viewBox="0 0 37.557 25.82">
  <g id="noun-police-4336491" transform="translate(0.021 -49.219)">
    <path id="Path_59544" data-name="Path 59544" d="M290.935,194.85l.791,2.354h2.558l-2.07,1.455.79,2.354-2.07-1.455-2.07,1.455.791-2.354-2.07-1.455h2.558Z" transform="translate(-272.176 -137.817)" fill="#bed644"/>
    <path id="Path_59545" data-name="Path 59545" d="M17.589,49.413a3.632,3.632,0,0,1,2.338,0L36.5,55.057a1.5,1.5,0,0,1,1.034,1.414,9.3,9.3,0,0,1-5.868,8.565v5.071a3.423,3.423,0,0,1-2.509,3.263l-1.3.376a32.7,32.7,0,0,1-18.211,0l-1.3-.376a3.423,3.423,0,0,1-2.509-3.263V65.035A9.3,9.3,0,0,1-.021,56.47a1.5,1.5,0,0,1,1.034-1.414Zm1.558,2.143a1.21,1.21,0,0,0-.779,0L2.349,57.01a7.092,7.092,0,0,0,5.387,6.254l11.023,2.815,11.023-2.815a7.092,7.092,0,0,0,5.387-6.254ZM8.2,65.731v4.376a1.141,1.141,0,0,0,.836,1.088l1.3.376a30.285,30.285,0,0,0,16.862,0l1.3-.376a1.141,1.141,0,0,0,.836-1.088V65.731l-10,2.554a2.281,2.281,0,0,1-1.127,0Z" fill="#bed644" fill-rule="evenodd"/>
  </g>
</svg>
